<svg width="37" height="36" viewBox="0 0 37 36" fill="none" xmlns="http://www.w3.org/2000/svg">
<path d="M24.5 16.75C24.09 16.75 23.75 16.41 23.75 16V14C23.75 10.85 22.86 8.75 18.5 8.75C14.14 8.75 13.25 10.85 13.25 14V16C13.25 16.41 12.91 16.75 12.5 16.75C12.09 16.75 11.75 16.41 11.75 16V14C11.75 11.1 12.45 7.25 18.5 7.25C24.55 7.25 25.25 11.1 25.25 14V16C25.25 16.41 24.91 16.75 24.5 16.75Z" fill="#1C1C1E" fill-opacity="0.72"/>
<path d="M18.5 25.25C16.71 25.25 15.25 23.79 15.25 22C15.25 20.21 16.71 18.75 18.5 18.75C20.29 18.75 21.75 20.21 21.75 22C21.75 23.79 20.29 25.25 18.5 25.25ZM18.5 20.25C17.54 20.25 16.75 21.04 16.75 22C16.75 22.96 17.54 23.75 18.5 23.75C19.46 23.75 20.25 22.96 20.25 22C20.25 21.04 19.46 20.25 18.5 20.25Z" fill="#1C1C1E" fill-opacity="0.72"/>
<path d="M23.5 28.75H13.5C9.09 28.75 7.75 27.41 7.75 23V21C7.75 16.59 9.09 15.25 13.5 15.25H23.5C27.91 15.25 29.25 16.59 29.25 21V23C29.25 27.41 27.91 28.75 23.5 28.75ZM13.5 16.75C9.92 16.75 9.25 17.43 9.25 21V23C9.25 26.57 9.92 27.25 13.5 27.25H23.5C27.08 27.25 27.75 26.57 27.75 23V21C27.75 17.43 27.08 16.75 23.5 16.75H13.5Z" fill="#1C1C1E"/>
</svg>
