<svg width="37" height="36" viewBox="0 0 37 36" fill="none" xmlns="http://www.w3.org/2000/svg">
<path d="M23.5 27.25H13.5C9.85 27.25 7.75 25.15 7.75 21.5V14.5C7.75 10.85 9.85 8.75 13.5 8.75H23.5C27.15 8.75 29.25 10.85 29.25 14.5V21.5C29.25 25.15 27.15 27.25 23.5 27.25ZM13.5 10.25C10.64 10.25 9.25 11.64 9.25 14.5V21.5C9.25 24.36 10.64 25.75 13.5 25.75H23.5C26.36 25.75 27.75 24.36 27.75 21.5V14.5C27.75 11.64 26.36 10.25 23.5 10.25H13.5Z" fill="#1C1C1E" fill-opacity="0.72"/>
<path d="M18.4998 18.87C17.6598 18.87 16.8098 18.61 16.1598 18.08L13.0298 15.58C12.7098 15.32 12.6498 14.85 12.9098 14.53C13.1698 14.21 13.6398 14.15 13.9598 14.41L17.0898 16.91C17.8498 17.52 19.1398 17.52 19.8998 16.91L23.0298 14.41C23.3498 14.15 23.8298 14.2 24.0798 14.53C24.3398 14.85 24.2898 15.33 23.9598 15.58L20.8298 18.08C20.1898 18.61 19.3398 18.87 18.4998 18.87Z" fill="#1C1C1E" fill-opacity="0.72"/>
</svg>
